<svg width="116" height="115" viewBox="0 0 116 115" fill="none" xmlns="http://www.w3.org/2000/svg">
<path d="M57.2929 114.707C57.6834 115.098 58.3166 115.098 58.7071 114.707L65.0711 108.343C65.4616 107.953 65.4616 107.319 65.0711 106.929C64.6805 106.538 64.0474 106.538 63.6569 106.929L58 112.586L52.3431 106.929C51.9526 106.538 51.3195 106.538 50.9289 106.929C50.5384 107.319 50.5384 107.953 50.9289 108.343L57.2929 114.707ZM57 32L57 114L59 114L59 32L57 32Z" fill="black"/>
<path d="M10.96 12.336C10.96 13.456 10.7253 14.4427 10.256 15.296C9.78667 16.1493 9.104 16.816 8.208 17.296C7.32267 17.7653 6.26667 18 5.04 18H1.024V6.704H5.04C6.26667 6.704 7.32267 6.93867 8.208 7.408C9.104 7.86667 9.78667 8.52267 10.256 9.376C10.7253 10.2187 10.96 11.2053 10.96 12.336ZM4.848 15.984C6.064 15.984 7.00267 15.664 7.664 15.024C8.336 14.384 8.672 13.488 8.672 12.336C8.672 11.1733 8.336 10.272 7.664 9.632C7.00267 8.992 6.064 8.672 4.848 8.672H3.28V15.984H4.848ZM16.745 9.024C17.609 9.024 18.3823 9.20533 19.065 9.568C19.7583 9.93067 20.3023 10.4587 20.697 11.152C21.0917 11.8347 21.289 12.64 21.289 13.568C21.289 14.496 21.0917 15.3013 20.697 15.984C20.3023 16.6667 19.7583 17.1947 19.065 17.568C18.3823 17.9307 17.609 18.112 16.745 18.112C15.881 18.112 15.1023 17.9307 14.409 17.568C13.7263 17.1947 13.1877 16.6667 12.793 15.984C12.3983 15.3013 12.201 14.496 12.201 13.568C12.201 12.64 12.3983 11.8347 12.793 11.152C13.1877 10.4587 13.7263 9.93067 14.409 9.568C15.1023 9.20533 15.881 9.024 16.745 9.024ZM16.745 10.976C16.1157 10.976 15.5823 11.2 15.145 11.648C14.7077 12.0853 14.489 12.7253 14.489 13.568C14.489 14.4107 14.7077 15.056 15.145 15.504C15.5823 15.9413 16.1157 16.16 16.745 16.16C17.3743 16.16 17.9077 15.9413 18.345 15.504C18.7823 15.056 19.001 14.4107 19.001 13.568C19.001 12.7253 18.7823 12.0853 18.345 11.648C17.9077 11.2 17.3743 10.976 16.745 10.976ZM35.5714 9.136L33.1874 18H30.6914L28.7874 11.552L26.8354 18H24.3394L21.9714 9.136H24.2274L25.6674 15.984L27.6354 9.136H30.0194L32.0034 15.984L33.4594 9.136H35.5714ZM41.9759 9.008C42.9999 9.008 43.8159 9.344 44.4239 10.016C45.0319 10.688 45.3359 11.632 45.3359 12.848V18H43.0959V13.104C43.0959 12.4 42.9145 11.856 42.5519 11.472C42.1892 11.0773 41.6932 10.88 41.0639 10.88C40.4239 10.88 39.9119 11.088 39.5279 11.504C39.1439 11.92 38.9519 12.5173 38.9519 13.296V18H36.6959V9.136H38.9519V10.912C39.1865 10.3147 39.5705 9.85067 40.1039 9.52C40.6479 9.17867 41.2719 9.008 41.9759 9.008ZM49.5769 6.16V18H47.3209V6.16H49.5769ZM55.7138 9.024C56.5778 9.024 57.3511 9.20533 58.0338 9.568C58.7271 9.93067 59.2711 10.4587 59.6658 11.152C60.0604 11.8347 60.2578 12.64 60.2578 13.568C60.2578 14.496 60.0604 15.3013 59.6658 15.984C59.2711 16.6667 58.7271 17.1947 58.0338 17.568C57.3511 17.9307 56.5778 18.112 55.7138 18.112C54.8498 18.112 54.0711 17.9307 53.3778 17.568C52.6951 17.1947 52.1564 16.6667 51.7618 15.984C51.3671 15.3013 51.1698 14.496 51.1698 13.568C51.1698 12.64 51.3671 11.8347 51.7618 11.152C52.1564 10.4587 52.6951 9.93067 53.3778 9.568C54.0711 9.20533 54.8498 9.024 55.7138 9.024ZM55.7138 10.976C55.0844 10.976 54.5511 11.2 54.1138 11.648C53.6764 12.0853 53.4578 12.7253 53.4578 13.568C53.4578 14.4107 53.6764 15.056 54.1138 15.504C54.5511 15.9413 55.0844 16.16 55.7138 16.16C56.3431 16.16 56.8764 15.9413 57.3138 15.504C57.7511 15.056 57.9698 14.4107 57.9698 13.568C57.9698 12.7253 57.7511 12.0853 57.3138 11.648C56.8764 11.2 56.3431 10.976 55.7138 10.976ZM65.3241 9.024C66.0708 9.024 66.7108 9.2 67.2441 9.552C67.7775 9.904 68.1561 10.3787 68.3801 10.976V9.136H70.6201V18H68.3801V16.144C68.1561 16.7413 67.7775 17.2213 67.2441 17.584C66.7108 17.936 66.0708 18.112 65.3241 18.112C64.5775 18.112 63.9055 17.9307 63.3081 17.568C62.7108 17.2053 62.2415 16.6827 61.9001 16C61.5695 15.3067 61.4041 14.496 61.4041 13.568C61.4041 12.64 61.5695 11.8347 61.9001 11.152C62.2415 10.4587 62.7108 9.93067 63.3081 9.568C63.9055 9.20533 64.5775 9.024 65.3241 9.024ZM66.0281 10.992C65.3241 10.992 64.7588 11.2213 64.3321 11.68C63.9055 12.1387 63.6921 12.768 63.6921 13.568C63.6921 14.368 63.9055 14.9973 64.3321 15.456C64.7588 15.904 65.3241 16.128 66.0281 16.128C66.7108 16.128 67.2708 15.8987 67.7081 15.44C68.1561 14.9707 68.3801 14.3467 68.3801 13.568C68.3801 12.7787 68.1561 12.1547 67.7081 11.696C67.2708 11.2267 66.7108 10.992 66.0281 10.992ZM76.1366 9.024C76.8833 9.024 77.518 9.2 78.0406 9.552C78.574 9.904 78.958 10.3787 79.1926 10.976V6.16H81.4326V18H79.1926V16.144C78.958 16.7413 78.574 17.2213 78.0406 17.584C77.518 17.936 76.8833 18.112 76.1366 18.112C75.39 18.112 74.718 17.9307 74.1206 17.568C73.5233 17.2053 73.054 16.6827 72.7126 16C72.382 15.3067 72.2166 14.496 72.2166 13.568C72.2166 12.64 72.382 11.8347 72.7126 11.152C73.054 10.4587 73.5233 9.93067 74.1206 9.568C74.718 9.20533 75.39 9.024 76.1366 9.024ZM76.8406 10.992C76.1366 10.992 75.5713 11.2213 75.1446 11.68C74.718 12.1387 74.5046 12.768 74.5046 13.568C74.5046 14.368 74.718 14.9973 75.1446 15.456C75.5713 15.904 76.1366 16.128 76.8406 16.128C77.5233 16.128 78.0833 15.8987 78.5206 15.44C78.9686 14.9707 79.1926 14.3467 79.1926 13.568C79.1926 12.7787 78.9686 12.1547 78.5206 11.696C78.0833 11.2267 77.5233 10.992 76.8406 10.992ZM89.2175 13.808V18H86.9615V6.704H91.0735C92.4068 6.704 93.4095 7.024 94.0815 7.664C94.7642 8.304 95.1055 9.17333 95.1055 10.272C95.1055 11.3493 94.7535 12.208 94.0495 12.848C93.3562 13.488 92.3642 13.808 91.0735 13.808H89.2175ZM90.8335 12C92.1562 12 92.8175 11.424 92.8175 10.272C92.8175 9.70667 92.6628 9.27467 92.3535 8.976C92.0442 8.67733 91.5375 8.528 90.8335 8.528H89.2175V12H90.8335ZM106.507 12.336C106.507 13.456 106.272 14.4427 105.803 15.296C105.334 16.1493 104.651 16.816 103.755 17.296C102.87 17.7653 101.814 18 100.587 18H96.5709V6.704H100.587C101.814 6.704 102.87 6.93867 103.755 7.408C104.651 7.86667 105.334 8.52267 105.803 9.376C106.272 10.2187 106.507 11.2053 106.507 12.336ZM100.395 15.984C101.611 15.984 102.55 15.664 103.211 15.024C103.883 14.384 104.219 13.488 104.219 12.336C104.219 11.1733 103.883 10.272 103.211 9.632C102.55 8.992 101.611 8.672 100.395 8.672H98.8269V15.984H100.395ZM115.204 6.704V8.496H110.452V11.52H114.26V13.248H110.452V18H108.196V6.704H115.204Z" fill="black"/>
</svg>
